<svg version="1.1" xmlns="http://www.w3.org/2000/svg" xmlns:xlink="http://www.w3.org/1999/xlink" x="0px" y="0px"
	 width="100px" height="100px" viewBox="0 0 100 100" enable-background="new 0 0 100 100" xml:space="preserve">
    <g>
        <path fill="#FFFFFF" d="M2.73,37.235v40.581h94.54V37.235H2.73z M96.035,76.631H3.964V38.42h92.071V76.631L96.035,76.631z"/>
        <path fill="#FFFFFF" d="M79.295,63.141c3.098,0,5.619-2.521,5.619-5.62s-2.521-5.62-5.619-5.62c-3.1,0-5.619,2.521-5.619,5.62
            S76.195,63.141,79.295,63.141z M79.295,53.111c2.432,0,4.408,1.979,4.408,4.409c0,2.43-1.977,4.408-4.408,4.408
            c-2.43,0-4.408-1.979-4.408-4.408C74.887,55.09,76.863,53.111,79.295,53.111z"/>
        <path fill="#FFFFFF" d="M20.705,51.9c-3.099,0-5.62,2.521-5.62,5.62s2.521,5.62,5.62,5.62c3.099,0,5.62-2.521,5.62-5.62
            S23.804,51.9,20.705,51.9z M20.705,61.929c-2.431,0-4.409-1.979-4.409-4.408c0-2.431,1.978-4.409,4.409-4.409
            s4.409,1.979,4.409,4.409C25.114,59.95,23.137,61.929,20.705,61.929z"/>
        <path fill="#FFFFFF" d="M43.149,73.873c2.185,0.923,4.504,1.394,6.896,1.394s4.71-0.471,6.896-1.394
            c0.564-0.239,1.109-0.505,1.641-0.796h34.443V41.975H58.494c-0.504-0.273-1.021-0.522-1.553-0.748
            c-2.186-0.924-4.504-1.393-6.896-1.393s-4.711,0.469-6.896,1.393c-0.531,0.226-1.049,0.475-1.554,0.748H6.976v31.103h34.533
            C42.04,73.368,42.587,73.635,43.149,73.873z M91.84,43.16v28.682H60.516c0.725-0.532,1.412-1.12,2.057-1.766
            c1.627-1.628,2.904-3.521,3.795-5.631c0.926-2.185,1.395-4.504,1.395-6.896s-0.469-4.711-1.395-6.896
            c-0.891-2.109-2.168-4.004-3.795-5.63c-0.686-0.684-1.416-1.306-2.191-1.863H91.84z M50.045,41.045
            c4.41,0,8.552,1.716,11.669,4.834c3.117,3.118,4.834,7.262,4.834,11.67c0,4.409-1.715,8.554-4.834,11.67
            c-3.117,3.117-7.26,4.834-11.669,4.834c-4.409,0-8.554-1.715-11.67-4.834c-3.117-3.117-4.834-7.261-4.834-11.67
            c0-4.408,1.716-8.554,4.834-11.67C41.492,42.762,45.637,41.045,50.045,41.045z M8.161,71.842V43.16H39.71
            c-0.775,0.557-1.507,1.179-2.191,1.863c-1.627,1.626-2.904,3.521-3.796,5.63c-0.924,2.185-1.393,4.504-1.393,6.896
            s0.468,4.711,1.393,6.896c0.892,2.109,2.169,4.005,3.796,5.631c0.645,0.646,1.332,1.233,2.057,1.766H8.161z"/>
        <path fill="#FFFFFF" d="M48.396,57.938v11.437h-4.888v1.087h4.888v2.469h1.136v-2.469h1.679v2.469h1.084v-2.452
            c3.705-0.097,6.627-3.12,6.627-6.818c0-3.709-2.924-6.743-6.627-6.841V45.381h4.939v-1.086h-4.939v-2.468h-1.084v2.468h-1.679
            v-2.468h-1.136v2.452c-3.653,0.096-6.626,3.12-6.626,6.818C41.769,54.806,44.743,57.84,48.396,57.938z M57.809,63.658
            c0,3.083-2.451,5.604-5.514,5.701V57.934C55.357,58.032,57.809,60.564,57.809,63.658z M51.211,45.381v23.993h-1.679V45.381H51.211z
             M48.396,45.395v11.424c-3.061-0.096-5.512-2.629-5.512-5.723C42.883,48.014,45.335,45.492,48.396,45.395z"/>
    </g>
</svg>