<svg version="1.1" xmlns="http://www.w3.org/2000/svg" xmlns:xlink="http://www.w3.org/1999/xlink" x="0px" y="0px"
	 width="100px" height="100px" viewBox="0 0 100 100" enable-background="new 0 0 100 100" xml:space="preserve">
	<g>
		<path fill="#FFFFFF" d="M87.148,52.217c2.967-2.476,4.894-6.526,4.894-11.095c0-7.527-5.239-13.646-11.683-13.646
			c-4.086,0-7.692,2.469-9.784,6.195c-1.445-8.566-7.882-15.039-15.581-15.039c-7.7,0-14.135,6.473-15.573,15.038
			c-2.093-3.726-5.698-6.195-9.785-6.195c-6.451,0-11.689,6.119-11.689,13.646c0,4.569,1.927,8.618,4.893,11.095
			c-7.49,2.771-12.842,9.981-12.842,18.427c0,1.039,0.843,1.883,1.882,1.883h16.778c-0.587,2.228-0.903,4.561-0.903,6.961
			c0,1.039,0.835,1.883,1.882,1.883h50.724c1.039,0,1.882-0.844,1.882-1.883c0-2.4-0.315-4.733-0.903-6.961h16.778
			c1.039,0,1.882-0.844,1.882-1.883C99.998,62.197,94.639,54.986,87.148,52.217z M80.359,31.239c4.365,0,7.918,4.433,7.918,9.883
			c0,5.45-3.553,9.883-7.918,9.883s-7.918-4.433-7.918-9.883C72.441,35.672,75.995,31.239,80.359,31.239z M73.571,52.217
			c-2.056,0.745-3.974,1.852-5.69,3.268c-1.543-0.828-3.169-1.514-4.869-2.041c2.701-1.858,4.899-4.644,6.276-7.979
			C70.071,48.212,71.591,50.568,73.571,52.217z M54.994,22.395c6.684,0,12.126,6.691,12.126,14.926
			c0,8.227-5.442,14.918-12.126,14.918c-6.684,0-12.118-6.691-12.118-14.918C42.876,29.086,48.31,22.395,54.994,22.395z
			 M40.708,45.465c1.37,3.334,3.568,6.119,6.278,7.979c-1.701,0.52-3.327,1.205-4.87,2.041c-1.709-1.416-3.636-2.514-5.69-3.268
			C38.405,50.568,39.918,48.212,40.708,45.465z M21.71,41.122c0-5.45,3.553-9.883,7.926-9.883c4.366,0,7.918,4.433,7.918,9.883
			c0,5.45-3.553,9.883-7.918,9.883C25.263,51.005,21.71,46.571,21.71,41.122z M13.867,68.761c0.933-7.872,7.647-13.993,15.769-13.993
			c3.289,0,6.451,1.002,9.1,2.868c-3.824,2.854-6.88,6.691-8.784,11.125H13.867z M31.585,77.605
			c0.963-12.073,11.095-21.603,23.409-21.603c12.314,0,22.445,9.529,23.408,21.603H31.585z M80.044,68.761
			c-1.912-4.433-4.96-8.271-8.784-11.125c2.65-1.866,5.812-2.868,9.1-2.868c8.115,0,14.828,6.119,15.762,13.993H80.044z"/>
	</g>
</svg>