<svg version="1.1" xmlns="http://www.w3.org/2000/svg" xmlns:xlink="http://www.w3.org/1999/xlink" x="0px" y="0px"
	 width="100px" height="100px" viewBox="0 0 100 100" enable-background="new 0 0 100 100" xml:space="preserve">
	<g>
		<path fill="#FFFFFF" stroke="#FFFFFF" stroke-miterlimit="10" d="M5.46,37.235v40.582H100V37.235H5.46z M98.766,76.631H6.694V38.42
			h92.072V76.631L98.766,76.631z"/>
		<path fill="#FFFFFF" stroke="#FFFFFF" stroke-miterlimit="10" d="M82.025,63.141c3.098,0,5.619-2.521,5.619-5.619
			c0-3.1-2.521-5.621-5.619-5.621c-3.101,0-5.619,2.521-5.619,5.621C76.406,60.62,78.926,63.141,82.025,63.141z M82.025,53.111
			c2.432,0,4.408,1.979,4.408,4.408c0,2.431-1.978,4.407-4.408,4.407c-2.43,0-4.408-1.979-4.408-4.407
			C77.617,55.09,79.594,53.111,82.025,53.111z"/>
		<path fill="#FFFFFF" stroke="#FFFFFF" stroke-miterlimit="10" d="M23.436,51.9c-3.099,0-5.62,2.521-5.62,5.619
			c0,3.1,2.521,5.621,5.62,5.621s5.62-2.521,5.62-5.621C29.056,54.421,26.535,51.9,23.436,51.9z M23.436,61.93
			c-2.431,0-4.409-1.979-4.409-4.408c0-2.432,1.978-4.41,4.409-4.41s4.409,1.979,4.409,4.41C27.845,59.95,25.868,61.93,23.436,61.93z
			"/>
		<path fill="#FFFFFF" stroke="#FFFFFF" stroke-miterlimit="10" d="M45.879,73.873c2.185,0.923,4.503,1.395,6.896,1.395
			c2.393,0,4.709-0.472,6.896-1.395c0.563-0.239,1.108-0.505,1.642-0.796h34.442V41.975h-34.53c-0.504-0.273-1.021-0.522-1.553-0.748
			c-2.188-0.924-4.504-1.393-6.896-1.393c-2.392,0-4.71,0.469-6.896,1.393c-0.531,0.226-1.049,0.475-1.554,0.748H9.707v31.103H44.24
			C44.771,73.368,45.317,73.635,45.879,73.873z M94.57,43.16v28.682H63.246c0.727-0.531,1.412-1.119,2.059-1.766
			c1.627-1.628,2.902-3.521,3.795-5.631c0.926-2.187,1.396-4.504,1.396-6.896c0-2.392-0.47-4.711-1.396-6.896
			c-0.893-2.107-2.168-4.002-3.795-5.628c-0.688-0.684-1.416-1.306-2.191-1.863L94.57,43.16L94.57,43.16z M52.775,41.045
			c4.41,0,8.553,1.716,11.668,4.834c3.117,3.118,4.834,7.262,4.834,11.67c0,4.409-1.715,8.555-4.834,11.67
			c-3.115,3.117-7.26,4.834-11.668,4.834c-4.409,0-8.554-1.715-11.67-4.834c-3.117-3.117-4.834-7.261-4.834-11.67
			c0-4.408,1.716-8.554,4.834-11.67C44.223,42.762,48.368,41.045,52.775,41.045z M10.892,71.842V43.16H42.44
			c-0.775,0.557-1.507,1.179-2.191,1.863c-1.627,1.626-2.904,3.521-3.796,5.629c-0.924,2.186-1.393,4.505-1.393,6.896
			c0,2.394,0.468,4.711,1.393,6.896c0.892,2.109,2.169,4.006,3.796,5.632c0.645,0.646,1.332,1.231,2.057,1.766L10.892,71.842
			L10.892,71.842z"/>
		<path fill="#FFFFFF" stroke="#FFFFFF" stroke-miterlimit="10" d="M51.127,57.938v11.438h-4.889v1.087h4.889v2.471h1.137v-2.471
			h1.678v2.471h1.084V70.48c3.705-0.098,6.627-3.119,6.627-6.817c0-3.709-2.924-6.743-6.627-6.841V45.381h4.939v-1.086h-4.939v-2.468
			h-1.084v2.468h-1.678v-2.468h-1.137v2.452c-3.653,0.096-6.626,3.12-6.626,6.819C44.5,54.807,47.474,57.84,51.127,57.938z
			 M60.539,63.658c0,3.083-2.451,5.604-5.514,5.701V57.934C58.088,58.032,60.539,60.564,60.539,63.658z M53.941,45.381v23.993h-1.68
			V45.381H53.941z M51.127,45.395v11.423c-3.062-0.096-5.513-2.629-5.513-5.723C45.613,48.014,48.065,45.492,51.127,45.395z"/>
	</g>
</svg>