<?xml version="1.0" encoding="utf-8"?>
<!-- Generator: Adobe Illustrator 15.1.0, SVG Export Plug-In . SVG Version: 6.00 Build 0)  -->
<!DOCTYPE svg PUBLIC "-//W3C//DTD SVG 1.1//EN" "http://www.w3.org/Graphics/SVG/1.1/DTD/svg11.dtd">
<svg version="1.1" id="Calque_1" xmlns="http://www.w3.org/2000/svg" xmlns:xlink="http://www.w3.org/1999/xlink" x="0px" y="0px"
	 width="100px" height="100px" viewBox="0 0 100 100" enable-background="new 0 0 100 100" xml:space="preserve">
<path fill="none" stroke="#FFFFFF" stroke-width="2" stroke-miterlimit="10" d="M80,45.805h20v1H80V45.805z M89.469,36h1v20.001h-1
	V36z"/>
<path fill="none" stroke="#FFFFFF" stroke-width="3" stroke-miterlimit="10" d="M60.23,22.395c6.684,0,12.125,6.691,12.125,14.926
	c0,8.228-5.441,14.919-12.125,14.919c-6.686,0-12.12-6.692-12.12-14.92C48.112,29.086,53.547,22.395,60.23,22.395z M33.167,77.605
	c1.11-12.073,12.789-21.604,26.981-21.604c14.191,0,25.869,9.528,26.979,21.604H33.167z"/>
<path fill="#FFFFFF" stroke="#FFFFFF" stroke-width="1.5" stroke-miterlimit="10" d="M27.642,46.558v11.439h-4.889v1.086h4.889
	v2.472h1.137v-2.472h1.678v2.472h1.084v-2.453c3.705-0.099,6.627-3.119,6.627-6.816c0-3.709-2.924-6.744-6.627-6.841V34.001h4.939
	v-1.086h-4.94v-2.468h-1.084v2.468h-1.678v-2.468h-1.137v2.452c-3.653,0.096-6.626,3.12-6.626,6.819
	C21.015,43.427,23.989,46.46,27.642,46.558z M37.054,52.277c0,3.084-2.451,5.604-5.514,5.701V46.554
	C34.603,46.653,37.054,49.185,37.054,52.277z M30.456,34.001v23.994h-1.68V34.001H30.456z M27.642,34.016v11.423
	c-3.062-0.096-5.513-2.629-5.513-5.723C22.127,36.635,24.58,34.113,27.642,34.016z"/>
</svg>
