<svg version="1.1" xmlns="http://www.w3.org/2000/svg" xmlns:xlink="http://www.w3.org/1999/xlink" x="0px" y="0px"
	 width="100px" height="100px" viewBox="0 0 100 100" enable-background="new 0 0 100 100" xml:space="preserve">
    <g>
        <path fill="#FFFFFF" d="M78.285,49.651c-1.633-5.408-6.648-9.349-12.589-9.349c-1.957,0-3.807,0.439-5.476,1.206
            c-4.275-5.385-10.873-8.842-18.281-8.842c-12.21,0-22.222,9.378-23.242,21.323c-6.27,0.791-11.121,6.131-11.121,12.615
            c0,7.029,5.698,12.728,12.727,12.728H78c7.966,0,14.424-6.647,14.424-14.849C92.424,56.384,86.118,49.81,78.285,49.651z M78,75.939
            H20.303c-5.146,0-9.333-4.188-9.333-9.334c0-4.685,3.505-8.661,8.153-9.247l2.724-0.345l0.233-2.733
            c0.872-10.217,9.595-18.22,19.859-18.22c6.115,0,11.81,2.755,15.623,7.559l1.654,2.086l2.421-1.112
            c1.294-0.595,2.66-0.896,4.059-0.896c4.266,0,8.107,2.852,9.34,6.935l0.713,2.362l2.467,0.051
            c5.964,0.119,10.814,5.252,10.814,11.439C89.03,70.8,84.081,75.939,78,75.939z"/>
    </g>
</svg>