<svg version="1.1" xmlns="http://www.w3.org/2000/svg" xmlns:xlink="http://www.w3.org/1999/xlink" x="0px" y="0px"
	 width="100px" height="100px" viewBox="0 0 100 100" enable-background="new 0 0 100 100" xml:space="preserve">
	<g>
		<path fill="#FFFFFF" d="M85.861,49.651c-1.633-5.408-6.648-9.349-12.59-9.349c-1.956,0-3.807,0.439-5.475,1.206
			c-4.275-5.385-10.873-8.842-18.281-8.842c-12.21,0-22.223,9.378-23.242,21.323c-6.271,0.79-11.121,6.131-11.121,12.614
			c0,7.029,5.698,12.729,12.727,12.729h57.697c7.966,0,14.424-6.646,14.424-14.85C100,56.384,93.694,49.81,85.861,49.651z
			 M85.576,75.939H27.879c-5.146,0-9.333-4.188-9.333-9.334c0-4.686,3.505-8.662,8.153-9.248l2.724-0.344l0.233-2.734
			c0.872-10.216,9.595-18.219,19.859-18.219c6.115,0,11.81,2.755,15.623,7.559l1.653,2.086l2.421-1.112
			c1.295-0.595,2.66-0.896,4.059-0.896c4.267,0,8.107,2.852,9.341,6.935l0.713,2.362l2.467,0.051
			c5.964,0.119,10.813,5.252,10.813,11.439C96.605,70.8,91.657,75.939,85.576,75.939z"/>
	</g>
</svg>