<svg version="1.1" xmlns="http://www.w3.org/2000/svg" xmlns:xlink="http://www.w3.org/1999/xlink" x="0px" y="0px"
	 width="100px" height="100px" viewBox="0 0 100 100" enable-background="new 0 0 100 100" xml:space="preserve">
    <g>
        <path fill="#FFFFFF" d="M97.995,44.015L82.913,70.932l-0.016,0.018c-1.982,3.523-5.173,5.892-8.722,6.869
            c-4.216,1.162-8.713,0.298-12.213-2.34l1.565-2.785c2.776,2.231,6.412,2.983,9.842,2.039c2.761-0.764,5.24-2.584,6.789-5.274
            c0.041-0.087,0.08-0.169,0.144-0.251L95.35,42.374c0.013-0.027,0.033-0.06,0.05-0.087c1.553-2.764,1.854-5.931,1.113-8.811
            c-0.74-2.838-2.505-5.391-5.123-6.987c-0.066-0.037-0.141-0.073-0.203-0.119c-2.662-1.555-5.711-1.859-8.479-1.096
            c-2.791,0.775-5.301,2.633-6.854,5.399L60.69,57.721c-1.729,3.081-1.96,6.818-0.691,10.113l-1.86,3.314
            c-2.672-4.598-2.752-10.363-0.133-15.029l15.173-27.05c1.971-3.531,5.169-5.903,8.729-6.883c3.521-0.973,7.401-0.58,10.803,1.401
            c0.085,0.043,0.167,0.09,0.24,0.149c3.356,2.044,5.619,5.305,6.556,8.912c0.944,3.623,0.56,7.623-1.356,11.124
            C98.101,43.862,98.057,43.939,97.995,44.015z"/>
        <path fill="#FFFFFF" d="M76.78,44.011L61.684,70.925v0.007l0,0c-3.937,7.018-12.694,9.461-19.531,5.489
            c-0.077-0.041-0.154-0.085-0.227-0.135c-6.768-4.106-9.088-13.158-5.15-20.17l15.164-27.047c0.017-0.028,0.034-0.062,0.056-0.092
            c1.986-3.476,5.156-5.823,8.68-6.796c4.212-1.161,8.714-0.295,12.219,2.343l-1.563,2.791c-2.779-2.232-6.43-2.988-9.856-2.042
            c-2.769,0.769-5.258,2.601-6.801,5.316c-0.019,0.032-0.031,0.056-0.048,0.081L39.458,57.721
            c-3.099,5.526-1.244,12.674,4.128,15.865l0.006,0.003c5.369,3.192,12.308,1.275,15.403-4.255l0.006,0.007L74.114,42.38
            c0.021-0.033,0.037-0.062,0.049-0.094c1.73-3.082,1.97-6.816,0.697-10.105l1.864-3.325c2.646,4.562,2.743,10.27,0.187,14.915
            C76.872,43.859,76.829,43.935,76.78,44.011z"/>
    </g>
</svg>