<svg version="1.1" xmlns="http://www.w3.org/2000/svg" xmlns:xlink="http://www.w3.org/1999/xlink" x="0px" y="0px"
     width="23px" height="30px" viewBox="0 0 23 30" enable-background="new 0 0 23 30" xml:space="preserve">
    <g transform="translate(0.000000,2000.000000) scale(0.100000,-0.100000)">
      <path fill="#000000" d="M84.155,19949.926c-5.708-0.693-10.581-4.732-12.036-9.98c-0.371-1.338-0.493-2.516-0.493-4.678v-1.93
        H44.644c-30.293,0-27.529,0.074-28.555-0.785c-0.776-0.66-1.006-1.129-1.069-2.145c-0.049-0.736-0.015-0.908,0.22-1.391
        c0.366-0.768,0.859-1.25,1.592-1.588l0.625-0.287l6.47-0.029l6.47-0.035l0.059-0.326c0.029-0.186,0.186-2.559,0.337-5.299
        c0.156-2.734,0.503-8.604,0.781-13.061c0.669-11.27,1.284-21.617,1.738-29.15c0.205-3.525,0.479-8.014,0.596-9.986
        c0.122-1.967,0.439-7.275,0.708-11.787c0.703-11.811,1.416-23.604,1.919-32.012c0.239-4.023,0.688-11.426,0.981-16.445
        c0.308-5.01,0.649-10.723,0.771-12.705c0.112-1.963,0.557-9.375,0.981-16.445c1.006-16.826,1.06-17.607,1.304-18.643
        c0.718-3.027,2.437-5.732,4.873-7.715c2.109-1.719,4.346-2.744,7.173-3.32c0.874-0.176,3.506-0.186,61.65-0.186H175l1.133,0.244
        c6.689,1.396,11.553,6.553,12.09,12.813c0.039,0.43,0.381,6.123,0.762,12.666c0.391,6.533,0.762,12.695,0.83,13.672
        c0.068,0.986,0.352,5.918,0.654,10.967c0.605,10.332,1.055,17.617,1.523,25.557c0.322,5.244,0.898,14.805,3.115,51.943
        c0.576,9.58,1.201,19.869,1.367,22.848c1.055,17.406,1.543,25.561,1.543,25.941v0.43l7.246,0.035
        c7.148,0.029,7.246,0.029,7.744,0.254c1.289,0.551,1.992,1.586,1.992,2.9c0,1.24-0.635,2.211-1.768,2.734l-0.625,0.287
        l-27.119,0.049l-27.109,0.055l-0.059,2.51c-0.049,1.811-0.117,2.734-0.254,3.305c-0.645,2.715-1.924,4.889-3.994,6.846
        c-1.68,1.578-3.428,2.594-5.605,3.281c-2.236,0.703,0.664,0.645-33.057,0.664C98.12,19950.008,84.58,19949.979,84.155,19949.926z
         M145.4,19943.621c1.631-0.313,2.92-0.967,4.072-2.084c0.859-0.83,1.436-1.719,1.816-2.818c0.273-0.771,0.303-0.971,0.342-3.09
        l0.049-2.291h-36.704H78.271l0.049,2.236c0.063,2.467,0.176,2.994,0.918,4.332c1.089,1.947,3.247,3.412,5.596,3.779
        c0.283,0.043,13.843,0.088,30.117,0.092C141.631,19943.793,144.639,19943.773,145.4,19943.621z M191.338,19926.791
        c0-0.152-0.215-3.945-0.488-8.424c-0.479-8.145-1.094-18.344-1.914-32.006c-0.596-9.893-1.143-19.176-1.475-24.59
        c-0.156-2.477-0.469-7.822-0.703-11.881c-0.244-4.057-0.625-10.215-0.83-13.672c-0.205-3.467-0.654-10.84-0.977-16.396
        c-0.332-5.557-0.713-11.699-0.83-13.682c-0.244-4.189-0.947-15.918-1.797-30.166c-0.752-12.451-0.771-12.998-0.996-13.76
        c-0.83-3.018-3.711-5.439-6.992-5.918c-0.527-0.068-18.633-0.098-60.562-0.078c-56.543,0.039-59.839,0.039-60.459,0.205
        c-0.361,0.098-1.123,0.4-1.699,0.664c-0.884,0.42-1.201,0.635-2.139,1.514c-0.996,0.928-1.157,1.143-1.66,2.109
        c-0.693,1.328-0.854,2.061-1.006,4.707c-0.186,3.33-0.845,14.316-1.367,22.998c-0.278,4.512-1.04,17.236-1.699,28.281
        c-0.649,11.045-1.416,23.789-1.689,28.326c-0.278,4.541-0.645,10.697-0.82,13.676c-0.186,2.994-0.449,7.516-0.601,10.045
        c-0.156,2.539-0.376,6.195-0.493,8.145c-0.122,1.947-0.757,12.621-1.426,23.721c-0.664,11.098-1.274,21.348-1.367,22.783
        c-0.083,1.42-0.161,2.846-0.161,3.145v0.557h77.08h77.07V19926.791z"/>
      <path fill="#000000" d="M80.835,19905.125c-1.094-0.258-2.061-1.127-2.373-2.143c-0.142-0.479-0.166-7.242-0.142-60.518
        l0.029-59.986l0.264-0.508c0.767-1.465,2.603-2.158,4.199-1.592c0.854,0.293,1.606,0.996,1.914,1.768l0.239,0.596v59.918
        c0,53.334-0.024,59.965-0.161,60.434c-0.225,0.674-1.064,1.559-1.772,1.846C82.319,19905.213,81.533,19905.287,80.835,19905.125z"
        />
      <path fill="#000000" d="M114.375,19905.174c-1.05-0.195-1.982-0.902-2.451-1.846l-0.229-0.469v-60.137v-60.146l0.288-0.566
        c0.337-0.684,0.918-1.24,1.611-1.553c0.771-0.352,2.041-0.342,2.881,0.049c0.664,0.313,1.147,0.762,1.528,1.436l0.254,0.43
        l0.029,60.094c0.024,53.334,0,60.141-0.142,60.619c-0.215,0.684-1.045,1.568-1.768,1.855
        C115.762,19905.174,114.917,19905.277,114.375,19905.174z"/>
      <path fill="#000000" d="M145.459,19905.164c-1.094-0.215-2.188-1.113-2.5-2.08c-0.127-0.459-0.156-7.289-0.156-60.424v-59.918
        l0.225-0.586c0.283-0.693,0.986-1.396,1.719-1.709c0.752-0.322,2.061-0.322,2.773,0.01c0.674,0.303,1.289,0.879,1.621,1.514
        l0.273,0.508v60.186v60.195l-0.225,0.469C148.516,19904.686,146.953,19905.447,145.459,19905.164z"/>
    </g>
</svg>