<svg version="1.1" xmlns="http://www.w3.org/2000/svg" xmlns:xlink="http://www.w3.org/1999/xlink" x="0px" y="0px"
	 width="100px" height="100px" viewBox="0 0 100 100" enable-background="new 0 0 100 100" xml:space="preserve">
    <path fill="#FFFFFF" d="M70.758,57.821c-4.1,0-7.717,1.834-9.82,4.611l-20.636-8.976c0.447-1.079,0.706-2.242,0.706-3.458
	c0-1.22-0.259-2.377-0.706-3.463l20.636-8.967c2.104,2.773,5.717,4.611,9.82,4.611c6.488,0,11.764-4.586,11.764-10.227
	c0-5.642-5.275-10.232-11.764-10.232s-11.766,4.59-11.766,10.229c0,1.218,0.26,2.378,0.707,3.461l-20.636,8.972
	c-2.104-2.772-5.722-4.611-9.819-4.611c-6.486,0-11.766,4.587-11.766,10.228c0,5.643,5.28,10.229,11.766,10.229
	c4.103,0,7.715-1.836,9.819-4.61l20.636,8.975c-0.447,1.077-0.707,2.243-0.707,3.454c0,5.64,5.277,10.232,11.766,10.232
	s11.764-4.59,11.764-10.232C82.521,62.406,77.246,57.821,70.758,57.821z M70.758,24.13c4.96,0,8.991,3.506,8.991,7.819
	c0,4.313-4.031,7.822-8.991,7.822c-4.961,0-8.992-3.507-8.992-7.822C61.766,27.636,65.797,24.13,70.758,24.13z M29.244,57.821
	c-4.958,0-8.993-3.514-8.993-7.822c0-4.311,4.032-7.821,8.993-7.821c4.96,0,8.991,3.51,8.991,7.821
	C38.233,54.308,34.201,57.821,29.244,57.821z M70.758,75.866c-4.961,0-8.992-3.505-8.992-7.819c0-4.31,4.031-7.82,8.992-7.82
	c4.96,0,8.991,3.505,8.991,7.82C79.749,72.361,75.718,75.866,70.758,75.866z"/>
</svg>